<svg id="visual" viewBox="0 0 900 600" width="900" height="600" xmlns="http://www.w3.org/2000/svg" xmlns:xlink="http://www.w3.org/1999/xlink" version="1.1"><rect x="0" y="0" width="900" height="600" fill="#1d2530"></rect><path d="M0 513L21.5 506.8C43 500.7 86 488.3 128.8 489.5C171.7 490.7 214.3 505.3 257.2 510.2C300 515 343 510 385.8 505.7C428.7 501.3 471.3 497.7 514.2 493.8C557 490 600 486 642.8 487C685.7 488 728.3 494 771.2 485.8C814 477.7 857 455.3 878.5 444.2L900 433L900 601L878.5 601C857 601 814 601 771.2 601C728.3 601 685.7 601 642.8 601C600 601 557 601 514.2 601C471.3 601 428.7 601 385.8 601C343 601 300 601 257.2 601C214.3 601 171.7 601 128.8 601C86 601 43 601 21.5 601L0 601Z" fill="#4e4865" stroke-linecap="round" stroke-linejoin="miter"></path></svg>