<svg id="visual" viewBox="0 0 900 600" width="900" height="600" xmlns="http://www.w3.org/2000/svg" xmlns:xlink="http://www.w3.org/1999/xlink" version="1.1"><rect x="0" y="0" width="900" height="600" fill="#00221d"></rect><path d="M0 436L25 434C50 432 100 428 150 433.2C200 438.3 250 452.7 300 460.8C350 469 400 471 450 467.8C500 464.7 550 456.3 600 441.2C650 426 700 404 750 407.8C800 411.7 850 441.3 875 456.2L900 471L900 601L875 601C850 601 800 601 750 601C700 601 650 601 600 601C550 601 500 601 450 601C400 601 350 601 300 601C250 601 200 601 150 601C100 601 50 601 25 601L0 601Z" fill="#4e4865" stroke-linecap="round" stroke-linejoin="miter"></path></svg>